<mxfile host="app.diagrams.net" modified="2021-03-04T07:40:27.541Z" agent="5.0 (Macintosh; Intel Mac OS X 10_15_6) AppleWebKit/605.1.15 (KHTML, like Gecko) Version/14.0.3 Safari/605.1.15" etag="DtWa3G3HlnbvIPdQ9pAp" version="14.4.3" type="github" pages="4">
  <diagram id="8sV7IBa2hUrP79tmdSvY" name="Page-1">
    <mxGraphModel dx="757" dy="434" grid="1" gridSize="10" guides="1" tooltips="1" connect="1" arrows="1" fold="1" page="1" pageScale="1" pageWidth="827" pageHeight="1169" math="0" shadow="0">
      <root>
        <mxCell id="0" />
        <mxCell id="1" parent="0" />
        <mxCell id="3fBLBDJSU-QzbZjtQRwz-13" value="" style="group" vertex="1" connectable="0" parent="1">
          <mxGeometry x="90" y="110" width="610" height="390" as="geometry" />
        </mxCell>
        <mxCell id="3fBLBDJSU-QzbZjtQRwz-5" value="" style="shape=internalStorage;whiteSpace=wrap;html=1;backgroundOutline=1;dx=80;dy=40;" vertex="1" parent="3fBLBDJSU-QzbZjtQRwz-13">
          <mxGeometry y="-21.081081081081084" width="610.0000000000001" height="411.0810810810811" as="geometry" />
        </mxCell>
        <mxCell id="3fBLBDJSU-QzbZjtQRwz-8" value="" style="endArrow=none;dashed=1;html=1;exitX=0.353;exitY=-0.006;exitDx=0;exitDy=0;exitPerimeter=0;entryX=0.353;entryY=1;entryDx=0;entryDy=0;entryPerimeter=0;" edge="1" parent="3fBLBDJSU-QzbZjtQRwz-13" source="3fBLBDJSU-QzbZjtQRwz-5" target="3fBLBDJSU-QzbZjtQRwz-5">
          <mxGeometry width="50" height="50" relative="1" as="geometry">
            <mxPoint x="277.2727272727273" y="232.1428571428571" as="sourcePoint" />
            <mxPoint x="332.72727272727275" y="185.71428571428572" as="targetPoint" />
          </mxGeometry>
        </mxCell>
        <mxCell id="3fBLBDJSU-QzbZjtQRwz-9" value="操作员" style="rounded=0;whiteSpace=wrap;html=1;" vertex="1" parent="3fBLBDJSU-QzbZjtQRwz-13">
          <mxGeometry x="99.81818181818184" y="-9.714285714285715" width="110.90909090909092" height="18.57142857142857" as="geometry" />
        </mxCell>
        <mxCell id="3fBLBDJSU-QzbZjtQRwz-10" value="审核员" style="rounded=0;whiteSpace=wrap;html=1;" vertex="1" parent="3fBLBDJSU-QzbZjtQRwz-13">
          <mxGeometry x="221.81818181818184" y="-9.714285714285715" width="110.90909090909092" height="18.57142857142857" as="geometry" />
        </mxCell>
        <mxCell id="3fBLBDJSU-QzbZjtQRwz-11" value="审批员" style="rounded=0;whiteSpace=wrap;html=1;" vertex="1" parent="3fBLBDJSU-QzbZjtQRwz-13">
          <mxGeometry x="367.96774193548396" y="-9.713783783783782" width="82.82225806451615" height="18.572432432432436" as="geometry" />
        </mxCell>
        <mxCell id="3fBLBDJSU-QzbZjtQRwz-12" value="" style="endArrow=none;dashed=1;html=1;entryX=0.57;entryY=1.007;entryDx=0;entryDy=0;entryPerimeter=0;exitX=0.575;exitY=-0.007;exitDx=0;exitDy=0;exitPerimeter=0;" edge="1" parent="3fBLBDJSU-QzbZjtQRwz-13" source="3fBLBDJSU-QzbZjtQRwz-5" target="3fBLBDJSU-QzbZjtQRwz-5">
          <mxGeometry width="50" height="50" relative="1" as="geometry">
            <mxPoint x="377.09090909090924" as="sourcePoint" />
            <mxPoint x="377.09090909090924" y="334.2857142857142" as="targetPoint" />
          </mxGeometry>
        </mxCell>
        <mxCell id="3fBLBDJSU-QzbZjtQRwz-15" value="第一步" style="rounded=0;whiteSpace=wrap;html=1;" vertex="1" parent="3fBLBDJSU-QzbZjtQRwz-13">
          <mxGeometry x="19.838709677419352" y="89.99810810810811" width="49.19354838709678" height="18.572432432432436" as="geometry" />
        </mxCell>
        <mxCell id="3fBLBDJSU-QzbZjtQRwz-16" value="" style="endArrow=none;dashed=1;html=1;exitX=0.003;exitY=0.449;exitDx=0;exitDy=0;exitPerimeter=0;" edge="1" parent="3fBLBDJSU-QzbZjtQRwz-13" source="3fBLBDJSU-QzbZjtQRwz-5">
          <mxGeometry width="50" height="50" relative="1" as="geometry">
            <mxPoint x="9.838709677419354" y="210.81081081081084" as="sourcePoint" />
            <mxPoint x="619.8387096774194" y="163.3783783783784" as="targetPoint" />
          </mxGeometry>
        </mxCell>
        <mxCell id="3fBLBDJSU-QzbZjtQRwz-17" value="" style="endArrow=none;dashed=1;html=1;exitX=-0.002;exitY=0.422;exitDx=0;exitDy=0;exitPerimeter=0;" edge="1" parent="3fBLBDJSU-QzbZjtQRwz-13">
          <mxGeometry width="50" height="50" relative="1" as="geometry">
            <mxPoint x="-1.1019354838709792" y="274.20162162162165" as="sourcePoint" />
            <mxPoint x="611.1019354838711" y="274.054054054054" as="targetPoint" />
          </mxGeometry>
        </mxCell>
        <mxCell id="3fBLBDJSU-QzbZjtQRwz-26" style="edgeStyle=orthogonalEdgeStyle;rounded=0;orthogonalLoop=1;jettySize=auto;html=1;entryX=0;entryY=0.5;entryDx=0;entryDy=0;" edge="1" parent="3fBLBDJSU-QzbZjtQRwz-13" source="3fBLBDJSU-QzbZjtQRwz-14" target="3fBLBDJSU-QzbZjtQRwz-24">
          <mxGeometry relative="1" as="geometry" />
        </mxCell>
        <mxCell id="3fBLBDJSU-QzbZjtQRwz-14" value="申请" style="rounded=0;whiteSpace=wrap;html=1;" vertex="1" parent="3fBLBDJSU-QzbZjtQRwz-13">
          <mxGeometry x="110" y="50" width="60" height="40" as="geometry" />
        </mxCell>
        <mxCell id="3fBLBDJSU-QzbZjtQRwz-19" value="" style="endArrow=none;dashed=1;html=1;entryX=0.57;entryY=1.007;entryDx=0;entryDy=0;entryPerimeter=0;exitX=0.777;exitY=-0.012;exitDx=0;exitDy=0;exitPerimeter=0;" edge="1" parent="3fBLBDJSU-QzbZjtQRwz-13" source="3fBLBDJSU-QzbZjtQRwz-5">
          <mxGeometry width="50" height="50" relative="1" as="geometry">
            <mxPoint x="475.3080645161291" y="-5.460000000000037" as="sourcePoint" />
            <mxPoint x="472.2580645161292" y="389.99999999999994" as="targetPoint" />
          </mxGeometry>
        </mxCell>
        <mxCell id="3fBLBDJSU-QzbZjtQRwz-21" value="总经理" style="rounded=0;whiteSpace=wrap;html=1;" vertex="1" parent="3fBLBDJSU-QzbZjtQRwz-13">
          <mxGeometry x="499.997741935484" y="-9.713783783783782" width="82.82225806451615" height="18.572432432432436" as="geometry" />
        </mxCell>
        <mxCell id="3fBLBDJSU-QzbZjtQRwz-22" value="第二步" style="rounded=0;whiteSpace=wrap;html=1;" vertex="1" parent="3fBLBDJSU-QzbZjtQRwz-13">
          <mxGeometry x="19.838709677419352" y="209.9981081081081" width="49.19354838709678" height="18.572432432432436" as="geometry" />
        </mxCell>
        <mxCell id="3fBLBDJSU-QzbZjtQRwz-23" value="第三步" style="rounded=0;whiteSpace=wrap;html=1;" vertex="1" parent="3fBLBDJSU-QzbZjtQRwz-13">
          <mxGeometry x="19.83870967741936" y="319.9981081081081" width="49.19354838709678" height="18.572432432432436" as="geometry" />
        </mxCell>
        <mxCell id="3fBLBDJSU-QzbZjtQRwz-29" style="edgeStyle=orthogonalEdgeStyle;rounded=0;orthogonalLoop=1;jettySize=auto;html=1;entryX=0;entryY=0.5;entryDx=0;entryDy=0;" edge="1" parent="3fBLBDJSU-QzbZjtQRwz-13" source="3fBLBDJSU-QzbZjtQRwz-24" target="3fBLBDJSU-QzbZjtQRwz-27">
          <mxGeometry relative="1" as="geometry" />
        </mxCell>
        <mxCell id="3fBLBDJSU-QzbZjtQRwz-24" value="审核" style="rounded=0;whiteSpace=wrap;html=1;" vertex="1" parent="3fBLBDJSU-QzbZjtQRwz-13">
          <mxGeometry x="242.27" y="198.77999999999997" width="60" height="40" as="geometry" />
        </mxCell>
        <mxCell id="3fBLBDJSU-QzbZjtQRwz-31" style="edgeStyle=orthogonalEdgeStyle;rounded=0;orthogonalLoop=1;jettySize=auto;html=1;" edge="1" parent="3fBLBDJSU-QzbZjtQRwz-13" source="3fBLBDJSU-QzbZjtQRwz-27" target="3fBLBDJSU-QzbZjtQRwz-30">
          <mxGeometry relative="1" as="geometry" />
        </mxCell>
        <mxCell id="3fBLBDJSU-QzbZjtQRwz-27" value="审批" style="rounded=0;whiteSpace=wrap;html=1;" vertex="1" parent="3fBLBDJSU-QzbZjtQRwz-13">
          <mxGeometry x="380.78999999999996" y="198.77999999999997" width="60" height="40" as="geometry" />
        </mxCell>
        <mxCell id="3fBLBDJSU-QzbZjtQRwz-30" value="通过" style="rounded=0;whiteSpace=wrap;html=1;" vertex="1" parent="3fBLBDJSU-QzbZjtQRwz-13">
          <mxGeometry x="499.99999999999994" y="320" width="60" height="40" as="geometry" />
        </mxCell>
      </root>
    </mxGraphModel>
  </diagram>
  <diagram id="TlV337LWLW1Q749qpwI5" name="Page-2">
    <mxGraphModel dx="1351" dy="774" grid="1" gridSize="10" guides="1" tooltips="1" connect="1" arrows="1" fold="1" page="1" pageScale="1" pageWidth="827" pageHeight="1169" math="0" shadow="0">
      <root>
        <mxCell id="bKRDO-oMMJDXlfK9m9Tu-0" />
        <mxCell id="bKRDO-oMMJDXlfK9m9Tu-1" parent="bKRDO-oMMJDXlfK9m9Tu-0" />
        <mxCell id="VFytj9jXqfnAqaDjsWyz-0" value="Cross-Functional Flowchart" style="shape=table;childLayout=tableLayout;rowLines=0;columnLines=0;startSize=40;html=1;whiteSpace=wrap;collapsible=0;recursiveResize=0;expand=0;pointerEvents=0;fontStyle=1;align=center;" vertex="1" parent="bKRDO-oMMJDXlfK9m9Tu-1">
          <mxGeometry x="170" y="200" width="550" height="476" as="geometry" />
        </mxCell>
        <mxCell id="VFytj9jXqfnAqaDjsWyz-1" value="Actor 1" style="swimlane;horizontal=0;points=[[0,0.5],[1,0.5]];portConstraint=eastwest;startSize=40;html=1;whiteSpace=wrap;collapsible=0;recursiveResize=0;expand=0;pointerEvents=0;fontStyle=1" vertex="1" parent="VFytj9jXqfnAqaDjsWyz-0">
          <mxGeometry y="40" width="550" height="100" as="geometry" />
        </mxCell>
        <mxCell id="VFytj9jXqfnAqaDjsWyz-2" value="Phase 1" style="swimlane;connectable=0;startSize=40;html=1;whiteSpace=wrap;collapsible=0;recursiveResize=0;expand=0;pointerEvents=0;" vertex="1" parent="VFytj9jXqfnAqaDjsWyz-1">
          <mxGeometry x="40" width="170" height="100" as="geometry" />
        </mxCell>
        <mxCell id="VFytj9jXqfnAqaDjsWyz-3" value="Phase 2" style="swimlane;connectable=0;startSize=40;html=1;whiteSpace=wrap;collapsible=0;recursiveResize=0;expand=0;pointerEvents=0;" vertex="1" parent="VFytj9jXqfnAqaDjsWyz-1">
          <mxGeometry x="210" width="170" height="100" as="geometry" />
        </mxCell>
        <mxCell id="VFytj9jXqfnAqaDjsWyz-4" value="Phase 3" style="swimlane;connectable=0;startSize=40;html=1;whiteSpace=wrap;collapsible=0;recursiveResize=0;expand=0;pointerEvents=0;" vertex="1" parent="VFytj9jXqfnAqaDjsWyz-1">
          <mxGeometry x="380" width="170" height="100" as="geometry" />
        </mxCell>
        <mxCell id="VFytj9jXqfnAqaDjsWyz-5" value="Actor 2" style="swimlane;horizontal=0;points=[[0,0.5],[1,0.5]];portConstraint=eastwest;startSize=40;html=1;whiteSpace=wrap;collapsible=0;recursiveResize=0;expand=0;pointerEvents=0;" vertex="1" parent="VFytj9jXqfnAqaDjsWyz-0">
          <mxGeometry y="140" width="550" height="70" as="geometry" />
        </mxCell>
        <mxCell id="VFytj9jXqfnAqaDjsWyz-6" value="" style="swimlane;connectable=0;startSize=0;html=1;whiteSpace=wrap;collapsible=0;recursiveResize=0;expand=0;pointerEvents=0;" vertex="1" parent="VFytj9jXqfnAqaDjsWyz-5">
          <mxGeometry x="40" width="170" height="70" as="geometry" />
        </mxCell>
        <mxCell id="VFytj9jXqfnAqaDjsWyz-7" value="" style="swimlane;connectable=0;startSize=0;html=1;whiteSpace=wrap;collapsible=0;recursiveResize=0;expand=0;pointerEvents=0;" vertex="1" parent="VFytj9jXqfnAqaDjsWyz-5">
          <mxGeometry x="210" width="170" height="70" as="geometry" />
        </mxCell>
        <mxCell id="VFytj9jXqfnAqaDjsWyz-8" value="" style="swimlane;connectable=0;startSize=0;html=1;whiteSpace=wrap;collapsible=0;recursiveResize=0;expand=0;pointerEvents=0;" vertex="1" parent="VFytj9jXqfnAqaDjsWyz-5">
          <mxGeometry x="380" width="170" height="70" as="geometry" />
        </mxCell>
        <mxCell id="VFytj9jXqfnAqaDjsWyz-9" value="Actor 3" style="swimlane;horizontal=0;points=[[0,0.5],[1,0.5]];portConstraint=eastwest;startSize=40;html=1;whiteSpace=wrap;collapsible=0;recursiveResize=0;expand=0;pointerEvents=0;" vertex="1" parent="VFytj9jXqfnAqaDjsWyz-0">
          <mxGeometry y="210" width="550" height="133" as="geometry" />
        </mxCell>
        <mxCell id="VFytj9jXqfnAqaDjsWyz-10" value="" style="swimlane;connectable=0;startSize=0;html=1;whiteSpace=wrap;collapsible=0;recursiveResize=0;expand=0;pointerEvents=0;" vertex="1" parent="VFytj9jXqfnAqaDjsWyz-9">
          <mxGeometry x="40" width="170" height="133" as="geometry" />
        </mxCell>
        <mxCell id="VFytj9jXqfnAqaDjsWyz-11" value="" style="swimlane;connectable=0;startSize=0;html=1;whiteSpace=wrap;collapsible=0;recursiveResize=0;expand=0;pointerEvents=0;" vertex="1" parent="VFytj9jXqfnAqaDjsWyz-9">
          <mxGeometry x="210" width="170" height="133" as="geometry" />
        </mxCell>
        <mxCell id="VFytj9jXqfnAqaDjsWyz-12" value="" style="swimlane;connectable=0;startSize=0;html=1;whiteSpace=wrap;collapsible=0;recursiveResize=0;expand=0;pointerEvents=0;" vertex="1" parent="VFytj9jXqfnAqaDjsWyz-9">
          <mxGeometry x="380" width="170" height="133" as="geometry" />
        </mxCell>
        <mxCell id="VFytj9jXqfnAqaDjsWyz-13" style="swimlane;horizontal=0;points=[[0,0.5],[1,0.5]];portConstraint=eastwest;startSize=40;html=1;whiteSpace=wrap;collapsible=0;recursiveResize=0;expand=0;pointerEvents=0;" vertex="1" parent="VFytj9jXqfnAqaDjsWyz-0">
          <mxGeometry y="343" width="550" height="133" as="geometry" />
        </mxCell>
        <mxCell id="VFytj9jXqfnAqaDjsWyz-14" style="swimlane;connectable=0;startSize=0;html=1;whiteSpace=wrap;collapsible=0;recursiveResize=0;expand=0;pointerEvents=0;" vertex="1" parent="VFytj9jXqfnAqaDjsWyz-13">
          <mxGeometry x="40" width="170" height="133" as="geometry" />
        </mxCell>
        <mxCell id="VFytj9jXqfnAqaDjsWyz-15" style="swimlane;connectable=0;startSize=0;html=1;whiteSpace=wrap;collapsible=0;recursiveResize=0;expand=0;pointerEvents=0;" vertex="1" parent="VFytj9jXqfnAqaDjsWyz-13">
          <mxGeometry x="210" width="170" height="133" as="geometry" />
        </mxCell>
        <mxCell id="VFytj9jXqfnAqaDjsWyz-16" style="swimlane;connectable=0;startSize=0;html=1;whiteSpace=wrap;collapsible=0;recursiveResize=0;expand=0;pointerEvents=0;" vertex="1" parent="VFytj9jXqfnAqaDjsWyz-13">
          <mxGeometry x="380" width="170" height="133" as="geometry" />
        </mxCell>
      </root>
    </mxGraphModel>
  </diagram>
  <diagram id="KbVkeB2gLI8fiVFHOwuz" name="Page-3">
    <mxGraphModel dx="946" dy="542" grid="1" gridSize="10" guides="1" tooltips="1" connect="1" arrows="1" fold="1" page="1" pageScale="1" pageWidth="827" pageHeight="1169" math="0" shadow="0">
      <root>
        <mxCell id="ot5qEB5jDef9zxk_nmSa-0" />
        <mxCell id="ot5qEB5jDef9zxk_nmSa-1" parent="ot5qEB5jDef9zxk_nmSa-0" />
        <mxCell id="ot5qEB5jDef9zxk_nmSa-2" value="" style="rounded=0;whiteSpace=wrap;html=1;" vertex="1" parent="ot5qEB5jDef9zxk_nmSa-1">
          <mxGeometry x="160" y="90" width="120" height="60" as="geometry" />
        </mxCell>
        <mxCell id="ot5qEB5jDef9zxk_nmSa-3" value="" style="rounded=1;whiteSpace=wrap;html=1;" vertex="1" parent="ot5qEB5jDef9zxk_nmSa-1">
          <mxGeometry x="180" y="110" width="60" height="20" as="geometry" />
        </mxCell>
      </root>
    </mxGraphModel>
  </diagram>
  <diagram id="uHbDbcfOioRaW3VtouWn" name="Page-4">
    <mxGraphModel dx="946" dy="542" grid="1" gridSize="10" guides="1" tooltips="1" connect="1" arrows="1" fold="1" page="1" pageScale="1" pageWidth="827" pageHeight="1169" math="0" shadow="0">
      <root>
        <mxCell id="XcECQt7DGMYo_oDdhURB-0" />
        <mxCell id="XcECQt7DGMYo_oDdhURB-1" parent="XcECQt7DGMYo_oDdhURB-0" />
        <mxCell id="XcECQt7DGMYo_oDdhURB-3" value="Transaction" style="shape=ext;rounded=1;html=1;whiteSpace=wrap;double=1;" vertex="1" parent="XcECQt7DGMYo_oDdhURB-1">
          <mxGeometry x="210" y="100" width="120" height="80" as="geometry" />
        </mxCell>
        <mxCell id="XcECQt7DGMYo_oDdhURB-4" value="Task" style="shape=ext;rounded=1;html=1;whiteSpace=wrap;" vertex="1" parent="XcECQt7DGMYo_oDdhURB-1">
          <mxGeometry x="350" y="240" width="120" height="80" as="geometry" />
        </mxCell>
        <mxCell id="XcECQt7DGMYo_oDdhURB-5" value="Event&#xa;Sub-Process" style="shape=ext;rounded=1;html=1;whiteSpace=wrap;dashed=1;dashPattern=1 4;" vertex="1" parent="XcECQt7DGMYo_oDdhURB-1">
          <mxGeometry x="350" y="240" width="120" height="80" as="geometry" />
        </mxCell>
        <mxCell id="XcECQt7DGMYo_oDdhURB-6" value="Event&#xa;Sub-Process" style="shape=ext;rounded=1;html=1;whiteSpace=wrap;dashed=1;dashPattern=1 4;" vertex="1" parent="XcECQt7DGMYo_oDdhURB-1">
          <mxGeometry x="350" y="240" width="120" height="80" as="geometry" />
        </mxCell>
        <mxCell id="XcECQt7DGMYo_oDdhURB-7" value="Event&#xa;Sub-Process" style="shape=ext;rounded=1;html=1;whiteSpace=wrap;dashed=1;dashPattern=1 4;" vertex="1" parent="XcECQt7DGMYo_oDdhURB-1">
          <mxGeometry x="140" y="220" width="120" height="80" as="geometry" />
        </mxCell>
        <mxCell id="XcECQt7DGMYo_oDdhURB-8" value="Task" style="shape=ext;rounded=1;html=1;whiteSpace=wrap;" vertex="1" parent="XcECQt7DGMYo_oDdhURB-1">
          <mxGeometry x="70" y="70" width="120" height="80" as="geometry" />
        </mxCell>
      </root>
    </mxGraphModel>
  </diagram>
</mxfile>
